<svg width="26.000000000000004" height="27.999999999999996" xmlns="http://www.w3.org/2000/svg">
 <defs>
  <path d="m0.008,0.013l21.662,0l0,27.96l-21.662,0l0,-27.96z" id="a"/>
  <path d="m0,0.013l20.952,0l0,27.96l-20.952,0l0,-27.96z" id="c"/>
 </defs>
 <g>
  <title>Layer 1</title>
  <g id="svg_12">
   <path id="svg_6" d="m23.39959,1.22675c-0.214,-0.454 -0.67,-0.725 -1.223,-0.725l-2.134,0c-0.62,0 -1.082,0.25 -1.326,0.7l-3.163,4.63l2.769,3.793l4.833,-6.946c0.531,-0.647 0.347,-1.23 0.244,-1.452" fill="#74BB11"/>
   <path id="svg_7" d="m6.72759,1.14975l-0.003,-0.004c-0.482,-0.643 -1.123,-0.643 -1.334,-0.643l-2.087,0c-0.535,0 -0.972,0.245 -1.202,0.674c-0.235,0.438 -0.185,0.966 0.14,1.455l7.732,10.738l-8.89,12.423c-0.311,0.467 -0.355,0.987 -0.12,1.425c0.23,0.429 0.668,0.674 1.202,0.674l2.134,0c0.548,0 1.03,-0.285 1.271,-0.735l9.951,-13.738l-8.794,-12.269z" fill="#009CD9"/>
   <path id="svg_8" d="m24.48359,26.16475l-5.386,-7.4l-2.37,3.27l4.26,5.69l0.11,0.05c0.184,0.079 0.36,0.117 0.538,0.117l1.811,0c0.438,0 0.81,-0.195 1.02,-0.534c0.216,-0.35 0.221,-0.783 0.017,-1.193" fill="#EB2084"/>
  </g>
 </g>
</svg>