<svg width="23.999999999999996" height="25" xmlns="http://www.w3.org/2000/svg" fill="none">

 <g>
  <title>Layer 1</title>
  <g id="svg_4">
   <path id="svg_2" fill="#4972F1" d="m11.94351,15.69012c-1.4347,0 -2.72258,-0.6262 -3.61741,-1.6215c-0.78879,-0.8802 -1.27007,-2.0475 -1.27007,-3.328c0,-2.733 2.18868,-4.9475 4.88748,-4.9475c1.7639,0 3.3084,0.945 4.1647,2.3625c0.0017,0.002 0.0034,0.0035 0.0034,0.0055c0.4556,0.7525 0.7174,1.6345 0.7174,2.5795c0,2.733 -2.1867,4.9495 -4.8855,4.9495zm10.7444,5.3338c-1.2995,-1.471 -2.4445,-3.168 -2.4475,-9.405c0.006,-0.1438 0.0065,-0.1485 0.0065,-0.294c0,-2.5465 -0.9055,-4.8548 -2.3731,-6.53705c0.1108,-0.144 0.2245,-0.31525 0.3372,-0.506c0.0146,-0.02375 0.0274,-0.0475 0.0401,-0.07125c0.1327,-0.2275 0.2637,-0.48025 0.3856,-0.7495c0.1201,-0.26575 0.2291,-0.54225 0.3221,-0.81725c0.0108,-0.03475 0.0237,-0.06925 0.0326,-0.10425c0.0564,-0.17775 0.1053,-0.35525 0.1456,-0.52575c0.1856,-0.808 0.1508,-1.5005 -0.311,-1.6965c-0.2622,-0.11175 -0.5787,0.20325 -0.9462,0.66675c-0.0126,0.0165 -0.0272,0.033 -0.0418,0.05125c-0.0163,0.02025 -0.0326,0.0405 -0.0492,0.06225c-0.24,0.3115 -0.5055,0.67625 -0.7947,1.01325c-0.022,0.02575 -0.0438,0.05125 -0.0655,0.077c-0.0129,0.0145 -0.0255,0.02925 -0.0383,0.044c-0.3162,0.35725 -0.6598,0.675 -1.0308,0.85925c-1.1554,-0.693 -2.4742,-1.08575 -3.874,-1.08575c-1.4357,0 -2.78584,0.413 -3.96222,1.13975c-0.41652,-0.17175 -0.79966,-0.51825 -1.14919,-0.91325c-0.01286,-0.01475 -0.02546,-0.0295 -0.03807,-0.044c-0.022,-0.02575 -0.04375,-0.05125 -0.06575,-0.077c-0.28922,-0.337 -0.5547,-0.70175 -0.79472,-1.01325c-0.01632,-0.02175 -0.03288,-0.042 -0.04919,-0.06225c-0.01459,-0.01825 -0.02892,-0.03475 -0.04178,-0.05125c-0.36757,-0.4635 -0.68397,-0.7785 -0.946,-0.66675c-0.462,0.196 -0.4966,0.8885 -0.31121,1.6965c0.04004,0.1705 0.08924,0.348 0.1456,0.52575c0.00914,0.035 0.02175,0.0695 0.03262,0.10425c0.09295,0.275 0.20221,0.5515 0.32209,0.81725c0.12187,0.26925 0.25288,0.522 0.38587,0.7495c0.01261,0.02375 0.02521,0.0475 0.0398,0.07125c0.14708,0.249 0.29588,0.4645 0.43753,0.63025c-1.40479,1.67075 -2.26675,3.9283 -2.26675,6.4128c0,0.198 -0.01038,0.2682 0.00025,0.4632c-0.02497,6.107 -1.23867,7.7773 -2.52703,9.2358c-0.92376,1.0457 -0.13794,3.2417 1.7904,2.2617c3.88634,-1.975 4.79229,1.6908 8.95005,1.5685c4.1577,-0.1222 4.9525,-3.5435 8.9597,-1.5685c1.9399,0.9565 2.7139,-1.216 1.7904,-2.2617z" clip-rule="evenodd" fill-rule="evenodd"/>
   <path id="svg_3" fill="#323541" d="m16.44401,10.02332c0,1.3835 -1.1071,2.5048 -2.4733,2.5048c-1.366,0 -2.4734,-1.1213 -2.4734,-2.5048c0,-1.3835 1.1074,-2.50498 2.4734,-2.50498c1.3662,0 2.4733,1.12148 2.4733,2.50498z" clip-rule="evenodd" fill-rule="evenodd"/>
  </g>
 </g>
</svg>